PathFileType	4	(X/Y/Z)	62_2_99_p1_0-415.trc
DataRate	CameraRate	NumFrames	NumMarkers	Units	OrigDataRate	OrigDataStartFrame	OrigNumFrames
60.0	60.0	6	27	m	60.0	104	416
Frame#	Time	RHip			RKnee			RAnkle			RBigToe			RSmallToe			RHeel			LHip			LKnee			LAnkle			LBigToe			LSmallToe			LHeel			Neck			Head			Nose			RShoulder			RElbow			RWrist			RThumb			RIndex			RPinky			LShoulder			LElbow			LWrist			LThumb			LIndex			LPinky			
		X1	Y1	Z1	X2	Y2	Z2	X3	Y3	Z3	X4	Y4	Z4	X5	Y5	Z5	X6	Y6	Z6	X7	Y7	Z7	X8	Y8	Z8	X9	Y9	Z9	X10	Y10	Z10	X11	Y11	Z11	X12	Y12	Z12	X13	Y13	Z13	X14	Y14	Z14	X15	Y15	Z15	X16	Y16	Z16	X17	Y17	Z17	X18	Y18	Z18	X19	Y19	Z19	X20	Y20	Z20	X21	Y21	Z21	X22	Y22	Z22	X23	Y23	Z23	X24	Y24	Z24	X25	Y25	Z25	X26	Y26	Z26	X27	Y27	Z27	
104	1.7333333333333334	0.3154815731360382	0.5091040998403933	0.23031723853505018	0.32663965847275195	0.781691941018594	0.48473769346583234	0.3318665516651649	1.0801965128780728	0.7635656706861662	0.28402206366748733	0.919512220596908	0.9173693878180172	0.37227273000680555	0.9842812059473359	0.8990545587216391	0.31655619996654627	1.1236786461353943	0.7962226761960925	0.12062364031835086	0.546931651250265	0.19857506119365248	0.1406241670186925	0.7884015287489353	0.46275620440376547	0.15033780409530229	1.0459327047835678	0.7660655844169958	0.1192979444937142	0.9278650161607187	0.9159650213981422	0.07883881666454756	0.9752080357889102	0.8815064122658723	0.17231250777803725	1.089382791275585	0.7888693888571185	0.229703497234801	0.1156209116476296	-0.24200009023907268	0.20920690556837665	-0.03936080397618095	-0.42448659814006634	0.17466018876706424	-0.03614744617177955	-0.27176559033018016	0.3765409869671309	0.1539801362842173	-0.1237486038211115	0.38488202792576676	0.28220540606631744	0.11875180789566243	0.3130984168976616	0.37974906988674273	0.3488096272012942	0.2390524380603143	0.383736315828095	0.45715120102963896	0.2517338809730993	0.4159263664211796	0.469456208143851	0.3008505186196339	0.4525614449902315	0.44059627392870515	0.08322958334083615	0.22579309372333767	-0.195730437545125	0.030180167354035715	0.3400311535294015	0.05927127512990924	0.07402335143728947	0.38985418194583726	0.3011343353891335	0.10141308945402615	0.3891310105646536	0.3872624353940766	0.08504159649138598	0.42501478318477404	0.41197030156835146	0.07357422918582067	0.4446594555266932	0.39018903230877316
105	1.75	0.3153496548100622	0.5088469987795166	0.23050992774404594	0.3265345717520823	0.7812086078493519	0.48508316124228873	0.3249851713171213	1.0654309204870367	0.7654622215473649	0.2814319540161248	0.9193195541732408	0.9205525147319977	0.3708481348496675	0.9811177508503495	0.8978815510132838	0.31428719290291923	1.1238657203257716	0.7981359156258366	0.12044428969685401	0.5465218705883437	0.19854101484446837	0.14051460790490514	0.7881785955109702	0.46271714605865744	0.1503127723885633	1.0458976194661112	0.7660673172284919	0.11916582484134591	0.9273518045032254	0.9161357890465751	0.07877928991575188	0.9753346158028904	0.8817163858968682	0.17256688681404553	1.0896973420320457	0.7887228479660208	0.22970441837500274	0.11561933957387285	-0.24194780113006228	0.20920386740175903	-0.03936854907096245	-0.42456723206768676	0.17464311542813557	-0.03608291980826849	-0.2718565855253093	0.3706224164649902	0.14531704132502174	-0.11884795224931548	0.3850814993726108	0.2689857335480734	0.12455153860718936	0.31305756229583487	0.37969010410976006	0.3488760478264466	0.23911455679991717	0.38405246330323767	0.45709627209474607	0.25791085547068326	0.4263558207220064	0.46673464233937967	0.3008214457312072	0.45279949310560685	0.44061183510313606	0.08325960570166484	0.22583082280508748	-0.1957535438448241	0.030186579124807485	0.3399703096818403	0.05933593902550836	0.07403144858445519	0.38962942494881325	0.3012156886260246	0.10138461449225623	0.38849706931980676	0.38747065025301497	0.08653320894185661	0.41219150984682346	0.4159886891184563	0.07354574121865488	0.4453696802746977	0.3938799820082796
106	1.7666666666666666	0.31542318488957	0.5088950357735097	0.23049364750571946	0.3258231900344385	0.7982222822790082	0.4803379992633777	0.3317096483941258	1.0799182562273597	0.763853686045163	0.2831455997838334	0.9231138420200654	0.9217667817439916	0.36709170061497165	0.9741610907570994	0.8998129648182698	0.3153095073310724	1.1270799342575575	0.8016777055690099	0.11609314139926184	0.5458928477895527	0.19866857170354155	0.14055092030614197	0.7883778092102649	0.4627187269597018	0.14936297667243165	1.0494237366336696	0.7700610584918435	0.12038426042274121	0.911015667938697	0.9181596709182759	0.07882223643543926	0.975134943862451	0.8815814181859403	0.17859372587251557	1.103096521092143	0.7875097072514577	0.22968519824231384	0.11562700248723279	-0.24194395545065228	0.20921815725763834	-0.03934959826273521	-0.42446617482281823	0.17987121722932492	-0.028171202694586346	-0.27731301500805305	0.3707948740294317	0.14328990789453258	-0.12198934444638214	0.38426065565780293	0.26628396484735717	0.12184521599203757	0.3130630983659007	0.37972879933267834	0.3489054920221063	0.2442925785261561	0.3960529462635411	0.45722393446847664	0.2580355395638837	0.4261900962487116	0.4669168732875004	0.2992912767536165	0.4516547835194939	0.4397073082608142	0.08328713412236124	0.22579831282164373	-0.19576772580219445	0.030241902815928437	0.34003562981655283	0.0593916596816727	0.07407965266071728	0.389670540027755	0.3012214092942045	0.1012945526732213	0.38856553109448816	0.38749274876963846	0.08645151420342496	0.41225659134741116	0.4159893681557487	0.07341876866670191	0.44535087256543754	0.393959323829229
107	1.7833333333333334	0.3154051835523939	0.5089623515174545	0.23038011879759185	0.32675413389504804	0.7813379209548548	0.4850702225403532	0.3247412632294726	1.0649308720639323	0.7661228309561775	0.28469336666336165	0.9207684432357097	0.9165909756039271	0.36742885075475984	0.9760200060814566	0.9038744946216184	0.3164529845214154	1.1236424887249903	0.7966589995422839	0.11592806106161234	0.54601812849717	0.19852644363528463	0.14055890043564667	0.7881985225023127	0.46271814181639387	0.14938881832312473	1.0494087417484543	0.7698531671580598	0.1191989380176969	0.9278235388824461	0.9160173391009949	0.07882049663750498	0.9752472290816676	0.8815882720808945	0.1786327625893169	1.1033434438259295	0.7875638791553575	0.22966645142476702	0.11562305197858039	-0.24186341580813156	0.20919756477598717	-0.03933881002743332	-0.4244840119448882	0.1798423107809473	-0.028084185562542538	-0.27732919280252677	0.370713151579638	0.14547227148711728	-0.11891727691741207	0.38401857832521147	0.2794019098309234	0.11615047476654544	0.31306535969157534	0.37959579242430386	0.3489529379748	0.23916731055758098	0.3839151038100555	0.4570812125007401	0.2579892134536224	0.4261899931670483	0.46648580425975733	0.30078405513463796	0.45252075316535867	0.44075889271265517	0.0832759707327973	0.2257509413283588	-0.19573793160338818	0.026157221766711404	0.33893612438475895	0.05983190553966286	0.07409703328648082	0.38970987063916807	0.30120344222013057	0.10135295569260258	0.38856163355836465	0.38751617895130874	0.08496931534790464	0.4246225485811121	0.4119799459329948	0.07738231205384995	0.44458243672785613	0.3941901457907368
108	1.8	0.3154472096811099	0.5091548707853086	0.2301977514863315	0.3257684167281354	0.7984971640555996	0.4801459944642687	0.3245937929903623	1.063302953547687	0.761475224228571	0.28177935670418486	0.8976932977490398	0.9231320759841629	0.3660188964502393	0.9711461519644111	0.8985973450836914	0.3080926571531301	1.104142848875264	0.7907647138057441	0.11535699739103096	0.5422714439762313	0.19550371643929573	0.13944618844821974	0.7841618511949533	0.45921110025516754	0.14935533519782618	1.0493338119691837	0.770082922986613	0.11984403387838187	0.9091682121605992	0.9183144873940687	0.07886073793379693	0.975102605337976	0.8815562771192206	0.18353751273557253	1.105572931510514	0.7849383495493027	0.22567010714869873	0.11595074883550914	-0.24198944857176272	0.20901506942479478	-0.04167624137194994	-0.42728477883842686	0.17451758943985218	-0.03608568664472402	-0.2719398837426473	0.37631618043731707	0.15397406008362735	-0.12371378491483725	0.38459661851278354	0.28443589021760274	0.12160086515200122	0.3130975203680484	0.3794796968403423	0.348777199583249	0.23913269543309087	0.38382234838887364	0.4570996066748259	0.2595026903432921	0.41010770641915184	0.46372279881272627	0.30336113664124226	0.4588662610495014	0.43053227582017173	0.08323546018717401	0.22569292135922567	-0.19572096758854277	0.0302934185535709	0.3404166205236645	0.05919471071144614	0.07348028438677766	0.39055808167234424	0.30082533235367526	0.10141758951950051	0.3883312442527411	0.38759797902162785	0.08508908820871139	0.4246355133679531	0.4119995582475095	0.07748295454951303	0.44477523206016406	0.39413384738797225
109	1.8166666666666667	0.3152757500995676	0.507288727767921	0.22686797611280396	0.32561812934938317	0.796567160000508	0.4770434611279434	0.3244657101261862	1.063233170543638	0.7618720301380538	0.2820213172250407	0.903870265875925	0.9290479331576554	0.3669599462919507	0.9735676680611731	0.9000908237603206	0.309154631078683	1.1076789393050155	0.7944020032627258	0.11489957408466327	0.5416445256010914	0.1954367614627933	0.13933530428798407	0.7839098204450248	0.4591793840762893	0.14931046179949525	1.0495739904265518	0.7704418499787629	0.12005326007943418	0.9105543229628095	0.9180934458795521	0.07316730609326677	0.976705032523968	0.8844380931377538	0.18463611744559225	1.108841458509017	0.7873437144538246	0.22565993859959885	0.11592671966501801	-0.24196523891121197	0.20916263261245424	-0.03953497894196136	-0.4246195172952934	0.17455781064032674	-0.03600077929090341	-0.27207932454611133	0.3763438488153208	0.15406314219854755	-0.12370561102558457	0.3844997799592534	0.284290962627853	0.12168078592891984	0.3130951021121535	0.37948912917712113	0.3487102506166669	0.2391247768222787	0.38395056552727413	0.45695455967402826	0.25868578030734374	0.4243466425395864	0.46256644966694926	0.3039508863350531	0.45647886816925065	0.427712902444866	0.08325536222239842	0.22589722436118181	-0.19580569009019416	0.030327886439134196	0.340535876899992	0.05915330197003429	0.0734954227906713	0.3921752429463562	0.30388882477576873	0.10485353405758861	0.38797817345941243	0.3878176217222554	0.08500433864565993	0.4244267149225158	0.41216527853423285	0.07722420072159807	0.44414095353312055	0.3946438174675999
